<svg height="527" viewBox="0 0 494 527" width="494" xmlns="http://www.w3.org/2000/svg"><g fill="none" fill-rule="evenodd"><g transform="translate(47)"><path d="m199.86983 392.606136-192.74176004-92.537545v-192.74068l192.74176004-100.20313525 192.741759 100.20313525-192.741759 92.537545z" fill="#ffe644"/><path d="m392.611589 107.327911v192.74068l-192.741759 92.537545v-192.74068zm-199.86875 136.827857v137.154903l-89.24335-42.847213c69.367703-21.647303 85.288631-74.631497 88.504136-90.03969l.206406-1.02433.167384-.894123c.024823-.137871.048152-.270092.070055-.396552l.114824-.688714.083765-.545044z" fill="#eed544"/><path d="m202.949348.70114914.241661.12126433 192.452493 100.05310453c2.342899 1.103032 3.987306 3.442327 4.090959 6.177579l.005198.274814v192.74068h-.028063c-.002087 2.559406-1.392005 5.016943-3.786589 6.277711l-.251284.126111-192.154589 92.256912-.207237.120888-.193744.102944-.2693.131277-.247172.107935-.245014.097142-.339997.116571-.383172.109015-.169459.041015-.343235.069079-.257022.040881-.36037.040881-.08419.006746c-.182411.014031-.364822.020507-.548313.020507l-.275371-.005396-.272942-.015111-.188887-.016191-.179174-.020508-.356187-.055047-.179173-.034539-.348633-.082031-.346473-.099301-.219649-.074071-.166626-.060444-.199816-.080277-.313013-.138158-.314093-.158665-.191046-.105912-.110094-.064626-192.14271692-92.250437c-2.46237183-1.177974-3.93631701-3.590472-4.03379401-6.140644l-.0051578-.264257h-.02806327v-192.74068c0-2.759671 1.56984027-5.153416 3.86530329-6.337997l.23193377-.114396 192.48811094-100.07145359c2.065111-1.07348475 4.413722-1.03585061 6.364-.10291527zm-188.6932081 117.92330586v176.99287l178.4866991 85.693346v-176.99287zm371.2273791 0-72.522519 34.818545.00056 88.49577-33.441701 16.055427-.000859-88.496197-72.5211 34.819801v176.99287l178.485619-85.693346zm-39.01118 159.949832 8.567932 5.078372-4.227839 1.997889v14.466614l-8.680185 4.098316v-14.465535l-4.228918 1.99681zm22.678359-10.709375 8.56901 5.078372-4.227839 1.997889v14.465535l-8.681264 4.100475v-14.467694l-4.227839 1.99681zm-273.998698-198.271912-72.1196128 37.495293 176.8374428 84.902178 75.10817-36.060471zm-66.8167346 66.752329.2170599.004322c2.8066221.111942 5.0808999 2.384424 5.1956843 5.189369l.0045458.22252v36.496279c0 2.906365-2.3207769 5.297002-5.2003053 5.411889l-.2169847.004323c-2.9074177.001052-5.2991072-2.319699-5.4140454-5.200229l-.004324-.217062.0010794-36.494121c0-2.907417 2.3197495-5.29808 5.2002301-5.412968zm171.5345646-121.1933794-72.60583 37.7460504 181.155 86.976 68.289351-32.785707z" fill="#010101" fill-rule="nonzero"/><path d="m301.980187 210.664417v28.616978l-4.475011 2.148998v-28.618056zm8.400632-4.063777v28.616978l-4.475012 2.148998v-28.616977z" fill="#fff"/></g><path d="m340.162896.0206852v20.6851972h33.447964c12.458853 0 18.685919 5.9485241 18.821273 17.7054973l.002256.3940502v37.7918552c0 11.59819-6.088652 17.5325177-18.265956 17.6629598l-.412777.0021985h-30.986425c-13.179552 0-18.989039-5.9527437-19.111154-17.2973343l-.001968-.367824v-76.5765999zm-285.3471235 20.664512v13.1764705h-30.7795734l-.5911354.00577c-.0959391.0019364-.1905972.0043668-.2839907.007301l-.5453142.0237294-.5157396.036293-.2470225.0230056-.4728369.0560245c-2.982803.4083185-4.2146241 1.6877241-4.6572703 4.422171l-.0620029.4322425-.0503287.4556742-.0210298.2367717-.0477182.7467622-.0199758.5288047-.0114148.5541266-.003632.5799209v32c0 .1868341.0013561.3689973.0041897.5465965l.0130551.519213.0226494.492471c.00923.1597713.0201805.3151925.032973.4663706l.0440256.4409118.0558072.4160946c.4335872 2.8272986 1.7867099 3.877686 5.1846737 4.1414311l.4994555.0324335c.1712029.0090987.3471642.0165205.5280054.0223725l.5572845.012953.5872927.0041751h30.841629v13.1764705h-35.7647059c-13.17955139 0-18.98903911-5.9527437-19.11115366-17.2973343l-.00196854-38.0148829c0-12.0306905 6.23329256-18.1114199 18.8400036-18.2421883l.417915-.0021555zm53.8177115 0c13.039216 0 19.414043 5.388229 19.545437 17.8485085l.002074.3958353v37.9366516c0 10.7363225-5.944018 17.2269175-17.132475 17.3730446l-.387887.002521h-28.9592755c-12.4573153 0-18.6843819-5.5222658-18.8212232-16.5667973l-.0023062-.3743791v-13.0316742c0-11.3132117 6.7983133-17.2444253 19.1342637-17.3734155l.4132476-.0021501h29.3936656v-6.3710408c0-4.4936807-1.506503-6.1895717-5.910981-6.5719116l-.542536-.0396707-.281868-.0152847-.58527-.0218243c-.199919-.0053789-.404698-.0088935-.614426-.010639l-41.0060959-.0013032v-13.1764705zm88.506787 0v13.1764705l-38.940531.0011593-.533631.0094619c-.172152.0047832-.338641.0112234-.499647.0194042l-.466749.0298479c-2.703978.2114205-3.690148 1.0138662-4.014234 2.8945943l-.048065.3235223c-.014099.1112245-.026335.2258606-.03689.3439918l-.026802.3649626-.009957.190502-.013706.3973587-.006332.4195827.000174 6.5455419.002759.2343975.011531.4487566.020347.4226299.030124.3972126c.217881 2.3725665 1.048185 3.3357587 3.503787 3.6382232l.412612.0433749.442065.0325011c.152371.0091002.30981.0165063.472478.0223367l.767841.0159987 22.239004.0025159.770531.0120516.752182.0243054c.371506.0152514.736134.0351771 1.093892.059896l.706355.0558636c.580998.0519374 1.142921.1174088 1.685796.196964l.642309.1022616.624034.1159931.605769.1299358c6.463602 1.4839219 9.713712 5.4594847 9.810716 13.1344187l.002238.3568589v14.3348416c0 10.1650313-4.813067 14.9507518-16.818696 15.0570128l-.412073.0018107h-43.728507v-13.1764705l37.819428-.0009151.89408-.0142598.549679-.0197701c.088603-.0040163.175718-.0084008.261368-.0131644l.496527-.0332217.462561-.0428574.429772-.0530274c2.275727-.3205978 3.116957-1.1269044 3.403783-2.8189632l.046237-.3174964.018904-.1662355.036146-.4379621.027532-.6684799.006472-.6263167-.001409-7.4581841-.01159-.4193578c-.123526-2.8553316-1.158063-4.0396203-4.400642-4.3454961l-.478386-.0378066-.509268-.0263689-.54099-.0154447-.573552-.0050341-19.395425-.0012957-.837399-.0104199c-.275417-.005225-.547128-.0122098-.815167-.0209784l-.793132-.0316816-.771295-.0425296-.749656-.0535221c-.123151-.0098445-.245408-.020153-.366776-.0309286l-.71757-.0702823-.696426-.0816367c-.45728-.0582413-.900596-.1241487-1.330212-.197915l-.634183-.1165678c-6.551727-1.2863573-9.737785-4.5461485-10.589599-10.533107l-.074101-.578456-.060184-.5950916c-.062173-.7040337-.096337-1.4423271-.103907-2.2159138l-.00162-12.9309862c0-9.596051 4.784395-14.530384 15.030695-15.2546727l.768985-.0459577c.519331-.0255141 1.052021-.0407886 1.598154-.0458778l.412121-.001908zm57.954752 0c13.037771 0 18.703809 5.9540913 18.82165 18.0025458l.001879.3865944v18.2443439l-52.271493 10.5701358.000677 6.3471926.011132.7599975.021517.5914082.043355.6609265.052972.511347c.318892 2.5677866 1.341096 3.726528 4.269811 4.1293883l.465776.0561031.496831.0447045c.085448.0065302.17223.0126075.260367.0182429l.545242.0285976c.187275.0078236.380132.0139677.578733.0185203l.613197.0089716 44.767087.0010705v13.1764705h-49.520362c-13.324316 0-18.993371-5.9540913-19.111243-17.4414585l-.00188-.3684962v-37.6470588c0-11.8874681 6.233293-17.9666408 18.699878-18.0973922l.413245-.0021553zm60.561086 0v13.1764705h-8.253394l-.633472.0055797-.317179.0073762-.610757.0242049c-4.860898.2500256-6.636938 1.7971833-7.193682 5.7075098l-.060111.4720986-.026029.2443848-.054013.6356635-.039274.671558-.0217.5636003-.013796.5874466-.007363.9267315v50.5339366h-16.506787v-53.8642534c0-13.1880543 6.102342-19.5641918 20.133471-19.6903958l.427615-.0019118zm101.285067 0v73.556561h-16.506787v-73.556561zm55.927602 0c13.034788 0 19.551412 5.809668 19.690048 17.5691797l.00226.3855714v55.6018099h-16.651584v-52.2714932l-.005963-.5890618-.018242-.5624366c-.196438-4.3943133-1.621898-6.28019-5.485805-6.7998647l-.495776-.0579263-.521701-.0441908c-.17828-.0124961-.360968-.0227856-.548152-.0309511l-.575127-.0182071-.602627-.0059589-18.116742.001325-.592824.0108079-.565598.0221485-.5389.0340451c-4.468684.3415185-6.101233 2.0325729-6.357136 6.6094651l-.023843.5518647-.007323.2860916-.005779.5928494v52.2714932h-16.506788v-55.6018099c0-11.8888727 6.376465-17.8263781 19.269571-17.9526918l.422737-.0020593zm-104.175853 13.1985444-28.530029-.0013887v40.1085973c0 .1868341.001356.3689973.00419.5465965l.013055.519213.022649.492471c.00923.1597713.020181.3151925.032973.4663706l.044026.4409118c.340265 2.9273744 1.505734 4.1165082 4.543234 4.4886076l.457997.048728c.078601.0071849.158346.0139105.23925.0201901l.499455.0324335.802942.0299863.572198.0084838h21.307438l.583577-.0084838.815382-.0299863.504875-.0324335.474925-.0431361c3.068277-.3246752 4.198225-1.4056296 4.556339-4.098295l.048075-.4160946.019969-.2173136.038934-.5709543.024603-.6114855.010513-.519213.00331-.5465965-.000759-32.1505685-.006369-.5712426-.013502-.5456576-.009674-.2633836-.041907-.7530854-.03967-.4717659c-.007449-.0766414-.015328-.1522962-.023653-.2269745l-.055439-.4364307c-.468122-3.2573441-1.950747-4.4903581-6.060794-4.6667933l-.551126-.0171009zm-256.87392 26.1860709h-24.3257923c-5.8342956 0-8.17243 1.8180038-8.251321 7.2406703l-.0020727.2887415v6.8054299c0 .2696208.0038739.5291696.0120424.778967l.0221879.4866877.0343883.4612539c.2919549 3.215876 1.5814837 4.5161907 5.1076635 4.845003l.5066656.0396707.2644535.0152847.5516158.0218243c.0944903.0026894.1902682.0049128.2873493.006682l.5982491.0052602h18.0995476l.59724-.0057589c.096748-.0019325.192114-.0043577.286114-.0072854l.547775-.0236721c3.899092-.21894 5.22785-1.4479104 5.566693-4.508728l.040218-.4288158.028838-.4519878.018346-.4756227.005518-.2468193.004281-.5119435zm138.063348-26.2081448h-20.705882c-.284846 0-.559885.0038525-.825394.0119362l-.518391.0219216c-.168616.0092626-.333077.0205182-.493467.0338788l-.469031.0465097-.445087.0598142c-3.177366.4890674-4.462684 2.105707-4.725406 6.0454168l-.029569.5517446c-.007798.1887895-.013565.382491-.017382.5812167l-.005685.6113623v12.7420815l35.619909-7.0950226-.001458-5.6722896-.011845-.6074932-.024153-.5784374c-.010156-.1880342-.022443-.3713223-.036943-.5499608l-.050216-.5220634c-.484615-4.3206154-2.46-5.6806154-7.26-5.6806154zm167.058823-33.8616677v14.479638h-16.506787v-14.479638z" fill="#fff" transform="translate(0 432)"/></g></svg>